<svg xmlns="http://www.w3.org/2000/svg" xmlns:xlink="http://www.w3.org/1999/xlink" width="300" height="300" viewBox="0 0 300 300"><defs><clipPath id="b"><rect width="300" height="300"/></clipPath></defs><g id="a" clip-path="url(#b)"><path d="M369,300a151.236,151.236,0,0,1-28.679-2.738,149.1,149.1,0,0,1-51.35-20.37,150.6,150.6,0,0,1-54.319-60.1A149.046,149.046,0,0,1,219.555,163H322.7a50.02,50.02,0,0,0,96.592,0h99.148A149.832,149.832,0,0,1,369,300Zm2-125a24.921,24.921,0,1,1,9.731-1.965A24.839,24.839,0,0,1,371,175Zm-48.554-37H219.473a150,150,0,0,1,299.054,0H419.554a50.016,50.016,0,0,0-97.107,0Z" transform="translate(-219)" fill="#ccc"/></g></svg>
